<svg xmlns="http://www.w3.org/2000/svg" viewBox="0 0 512 512" fill="none">
  <rect width="512" height="512" rx="130" fill="#E62117"/>
  <path fill-rule="evenodd" clip-rule="evenodd" d="M365.257 163.5C359.957 143.5 344.457 128 324.457 122.75C288.257 113.25 256.257 113.25 256.257 113.25C256.257 113.25 224.257 113.25 188.057 122.75C168.057 128 152.557 143.5 147.257 163.5C137.757 199.75 137.757 237.75 137.757 237.75C137.757 237.75 137.757 275.75 147.257 312C152.557 332 168.057 347.5 188.057 352.75C224.257 362.25 256.257 362.25 256.257 362.25C256.257 362.25 288.257 362.25 324.457 352.75C344.457 347.5 359.957 332 365.257 312C374.757 275.75 374.757 237.75 374.757 237.75C374.757 199.75 365.257 163.5ZM232.257 283.75V191.75L302.257 237.75L232.257 283.75Z" fill="white"/>
</svg>
